<svg xmlns="http://www.w3.org/2000/svg" width="24" height="24" viewBox="0 0 24 24">
    <g fill="none" fill-rule="evenodd">
        <g>
            <g transform="translate(-205 -2060) translate(205 2060)">
                <circle cx="12" cy="12" r="12" fill="#F0F0FF" fill-rule="nonzero"/>
                <path fill="#66F" d="M18.206 9.209c.08-.389.12-.784.12-1.181 0-2.847-2.066-5.274-4.876-5.73-2.811-.455-5.537 1.195-6.437 3.896C5.4 6.298 4.06 7.478 3.757 9.066c-.304 1.587.503 3.179 1.963 3.871.054 1.74 1.364 3.184 3.091 3.406 1.728.222 3.36-.843 3.853-2.513h.178c.797 1.05 2.111 1.572 3.412 1.353 1.3-.218 2.372-1.14 2.782-2.393.41-1.253.09-2.63-.83-3.575v-.006z"/>
                <path fill="#B3B3FF" d="M11.28 15.974c-3.213.002-6.135 1.861-7.496 4.772 4.226 3.97 10.688 4.351 15.351.903-1.122-3.386-4.288-5.673-7.855-5.675z"/>
                <path fill="#FFF" d="M16.952 10.742v-3.09c-.004-.58-.413-1.079-.981-1.195-.47 1.307-1.55 2.302-2.891 2.663v.2c0 2.138-1.634 3.897-3.744 4.154l-.12.034v4.4l4.392 2.828V16.44c.008-.67.557-1.207 1.228-1.2h.873c.682.006 1.24-.541 1.246-1.223V11.74h.91l-.913-.998z"/>
            </g>
        </g>
    </g>
</svg>
